<?xml version="1.0" standalone="no"?>
<!DOCTYPE svg PUBLIC "-//W3C//DTD SVG 20010904//EN"
 "http://www.w3.org/TR/2001/REC-SVG-20010904/DTD/svg10.dtd">
<svg version="1.0" xmlns="http://www.w3.org/2000/svg"
 width="900.000000pt" height="900.000000pt" viewBox="0 0 900.000000 900.000000"
 preserveAspectRatio="xMidYMid meet">

<g transform="translate(0.000000,900.000000) scale(0.100000,-0.100000)"
fill="#000000" stroke="none">
<path d="M3769 7447 c-69 -29 -112 -59 -139 -97 -28 -40 -17 -38 33 5 88 75
231 98 320 51 25 -14 48 -21 52 -18 4 4 5 2 4 -3 -2 -6 10 -32 26 -60 45 -75
47 -153 7 -231 -17 -32 -46 -75 -64 -95 -50 -56 -134 -117 -179 -130 -21 -7
-39 -15 -39 -19 0 -4 36 -37 81 -75 l80 -68 -52 -18 c-47 -17 -71 -29 -57 -29
3 0 31 9 63 20 l57 20 62 -49 c87 -69 182 -133 255 -174 34 -19 59 -37 54 -40
-4 -2 -40 -8 -78 -12 -65 -6 -72 -5 -90 15 -11 12 -33 32 -50 43 -19 13 -7 -4
32 -46 64 -71 152 -198 194 -280 24 -48 24 -48 4 -59 -11 -6 -47 -38 -80 -70
l-60 -60 60 40 c33 22 79 49 103 61 l42 21 -15 38 c-9 20 -31 62 -50 94 -28
44 -33 61 -27 80 5 12 12 37 16 53 l7 30 -20 -32 c-20 -32 -44 -42 -55 -24 -3
5 10 25 29 45 29 31 42 37 80 39 25 1 45 4 45 7 -1 3 -24 16 -53 29 -136 63
-314 190 -435 311 l-84 84 68 34 c139 70 229 197 229 323 0 56 -6 77 -35 135
-48 94 -101 128 -209 132 -62 2 -87 -2 -132 -21z m509 -1059 c-5 -15 -35 -34
-43 -27 -3 4 -3 14 1 23 7 18 48 23 42 4z"/>
<path d="M3323 7345 c-102 -28 -177 -85 -232 -177 -26 -44 -49 -147 -45 -203
l3 -40 -67 -30 c-76 -34 -157 -107 -193 -176 -34 -64 -33 -164 2 -239 37 -80
105 -145 170 -164 70 -21 114 -20 191 4 68 21 160 81 192 124 10 14 24 33 30
41 10 13 18 5 50 -51 40 -68 39 -83 -5 -84 -29 0 -67 -39 -85 -85 -13 -35 -16
-64 -11 -125 5 -75 4 -79 -16 -82 -14 -2 -23 -11 -25 -25 -3 -22 -7 -22 -75
-17 -119 9 -162 -33 -155 -151 8 -119 85 -234 199 -295 53 -28 68 -32 117 -28
48 4 60 10 89 41 25 29 33 45 33 76 0 35 3 39 30 45 21 4 30 11 30 25 0 15 9
22 36 27 19 3 40 2 45 -3 5 -5 11 -85 12 -177 l2 -167 -59 -24 c-32 -13 -64
-29 -69 -34 -7 -7 1 -27 24 -63 l35 -52 -121 -61 c-199 -102 -403 -250 -534
-390 -81 -87 -142 -165 -137 -174 3 -4 30 -16 60 -26 31 -11 56 -25 56 -32 0
-25 -46 -54 -126 -78 -101 -31 -170 -77 -209 -140 -24 -39 -30 -61 -33 -121
-4 -71 -3 -75 26 -104 17 -16 40 -30 51 -30 14 0 23 -9 27 -27 11 -44 23 -53
73 -52 l46 1 -43 10 c-34 7 -46 16 -58 42 -9 19 -28 37 -45 43 -41 16 -61 66
-48 122 27 120 104 197 243 241 49 16 74 31 95 56 l28 35 47 -22 c43 -21 46
-25 41 -54 -4 -19 4 -60 21 -110 32 -97 42 -207 24 -270 -28 -101 -118 -175
-193 -161 -36 7 -77 45 -77 72 0 8 -8 14 -17 14 -12 0 -14 -3 -7 -8 7 -4 17
-26 23 -48 15 -56 53 -73 120 -55 122 33 181 131 181 303 0 78 -4 99 -30 158
-30 69 -37 104 -21 114 4 3 37 -14 73 -38 l64 -43 18 71 c58 231 183 445 334
573 84 72 90 70 80 -19 -32 -279 -122 -631 -214 -841 -19 -43 -34 -82 -34 -88
0 -12 97 -59 122 -59 25 0 38 -31 38 -93 0 -41 5 -58 20 -72 20 -18 20 -17 21
11 1 16 0 41 -1 57 -4 61 9 83 79 135 38 28 89 61 114 73 26 13 43 27 40 32
-3 6 -1 7 5 3 6 -4 35 0 64 9 50 15 138 21 138 9 0 -3 -18 -36 -40 -73 -84
-144 -169 -347 -244 -579 -64 -199 -57 -200 13 -2 32 91 71 194 86 230 117
281 245 416 432 455 115 25 115 23 35 -62 -61 -63 -163 -208 -249 -353 -77
-129 -202 -370 -192 -370 5 0 16 15 25 33 87 168 270 436 394 574 43 49 54 55
136 79 138 40 282 104 381 170 l53 35 -26 52 c-90 177 -233 366 -397 523
l-105 102 72 7 c208 20 371 85 506 201 56 47 150 160 150 179 0 6 -25 27 -56
47 l-55 37 38 42 c21 23 58 55 82 71 25 15 42 28 38 28 -22 0 -104 -48 -145
-85 l-47 -42 -54 22 c-46 19 -55 28 -67 60 -7 21 -27 52 -45 71 -29 30 -31 37
-26 76 3 24 20 68 36 98 17 30 31 67 31 83 0 27 -6 34 -65 82 -51 40 -23 49
83 24 104 -24 102 -20 77 -116 -25 -94 0 -143 71 -143 47 0 70 26 107 120 l33
85 54 -3 c30 -2 56 -4 57 -6 2 -2 -12 -26 -31 -55 -33 -48 -57 -134 -42 -148
15 -15 96 85 110 137 4 15 -2 9 -15 -15 -26 -49 -58 -85 -75 -85 -23 0 15 96
58 146 23 25 48 32 48 12 0 -9 3 -9 11 -1 10 10 75 7 88 -3 2 -1 -6 -15 -16
-31 -20 -28 -43 -86 -43 -107 0 -6 12 14 26 44 41 89 56 100 133 100 l66 -1
-38 -31 c-21 -17 -52 -51 -69 -77 l-30 -46 41 47 c23 25 65 61 94 79 48 30 62
33 172 41 178 13 414 53 415 71 1 36 -2 40 -12 17 -10 -22 -12 -23 -16 -6 -2
11 2 46 8 78 7 32 11 60 9 62 -2 3 -31 -2 -64 -10 -275 -65 -711 -71 -1011
-13 -178 34 -330 98 -395 165 -29 30 -34 42 -34 83 0 41 -2 47 -15 38 -16 -10
-22 -44 -14 -85 5 -27 77 -99 108 -108 11 -3 28 -13 37 -20 9 -8 25 -16 35
-19 11 -2 39 -11 64 -20 25 -9 52 -18 60 -20 34 -9 156 -35 163 -35 5 0 6 -4
2 -9 -3 -6 -24 -4 -53 4 -26 7 -69 17 -97 21 -69 10 -68 10 -106 27 -19 8 -60
23 -91 33 -32 10 -58 21 -58 25 0 3 -18 14 -40 24 -44 20 -64 45 -73 93 -5 23
-3 34 7 38 8 3 17 12 20 20 7 18 -8 11 -41 -19 -12 -11 -20 -24 -16 -30 3 -6
1 -7 -4 -4 -17 11 -32 -16 -43 -72 -12 -62 0 -93 52 -136 34 -29 163 -95 185
-95 16 0 17 -12 2 -27 -16 -16 -4 -30 42 -54 73 -37 74 -77 3 -176 -26 -36
-34 -58 -34 -90 0 -37 5 -45 50 -83 28 -23 50 -50 50 -61 0 -10 -1 -19 -2 -19
-2 0 -28 7 -58 15 -86 23 -86 23 -93 -43 -9 -82 -38 -144 -97 -206 -76 -80
-130 -101 -260 -101 -112 0 -170 15 -170 44 1 9 9 41 20 71 20 60 17 70 -30
90 -20 8 -30 19 -30 34 1 61 23 167 45 212 14 28 25 56 25 62 0 6 9 16 20 22
26 14 27 50 0 50 -10 0 -24 9 -30 19 -10 19 -12 19 -47 4 -66 -27 -137 -2
-165 59 -32 69 -32 76 4 87 29 10 27 10 -17 5 -27 -3 -53 -8 -57 -11 -11 -6
-9 -65 2 -83 7 -11 10 -5 10 25 0 46 10 38 34 -27 23 -62 84 -124 154 -155 32
-14 58 -27 59 -28 2 0 -6 -24 -16 -51 -11 -28 -24 -79 -31 -114 -6 -36 -13
-72 -16 -81 -3 -11 5 -20 25 -29 49 -20 53 -30 40 -107 -6 -37 -17 -79 -24
-93 -12 -22 -11 -31 5 -67 23 -52 53 -70 86 -52 27 14 23 16 124 -76 129 -118
277 -283 367 -411 48 -67 143 -223 143 -234 0 -3 -91 -5 -203 -5 -183 0 -261
-7 -441 -38 -5 -1 -13 18 -18 43 -42 212 -114 474 -127 466 -3 -2 -6 8 -7 22
-1 35 -75 220 -136 341 l-47 94 70 -7 69 -6 -1 32 c0 18 -3 27 -6 21 -9 -24
-20 -13 -53 52 -27 54 -36 64 -54 60 -145 -33 -136 -34 -136 25 0 60 -36 345
-51 405 -10 41 -13 44 -53 50 -60 9 -97 25 -129 54 -51 47 -59 144 -14 176 29
20 63 19 117 -6 l44 -20 -21 23 c-12 13 -28 40 -37 61 -15 38 -15 40 13 80 35
51 77 90 154 146 60 44 210 121 236 121 8 0 12 3 9 6 -19 19 -220 -72 -306
-139 -58 -44 -124 -116 -117 -127 2 -4 -2 -7 -11 -7 -8 0 -19 17 -25 38 -11
35 -10 40 20 78 54 68 147 145 233 194 46 26 79 47 73 47 -19 0 -160 -82 -205
-118 -59 -48 -130 -121 -130 -133 0 -22 -22 -6 -38 29 -10 20 -31 60 -47 87
l-30 50 -5 -30 c-7 -40 -17 -54 -71 -98 -77 -62 -153 -92 -234 -92 -81 1 -111
13 -172 76 -87 87 -108 196 -57 297 43 86 198 212 212 172 3 -8 11 20 18 62
36 227 201 364 449 369 l60 1 -50 13 c-66 17 -138 17 -202 0z m1730 -1222 c-7
-2 -19 -2 -25 0 -7 3 -2 5 12 5 14 0 19 -2 13 -5z m-69 -143 c32 -5 60 -11 62
-13 2 -1 -12 -40 -30 -86 -42 -107 -89 -138 -136 -91 -25 25 -26 67 -3 142 20
64 18 63 107 48z m-1414 -693 c0 -5 -4 -5 -10 -2 -5 3 -10 14 -10 23 0 15 2
15 10 2 5 -8 10 -19 10 -23z m572 -116 c19 -38 14 -61 -13 -61 -40 0 -83 76
-59 105 11 13 16 14 34 2 12 -8 29 -28 38 -46z m618 -818 c10 -10 -94 -95
-149 -123 -98 -49 -252 -88 -250 -62 0 8 120 105 202 164 51 37 53 37 122 32
39 -3 72 -8 75 -11z m-1265 -220 c4 -21 9 -48 11 -60 3 -13 -1 -23 -7 -23 -17
0 -77 47 -89 70 -9 17 -6 22 22 34 49 21 55 19 63 -21z"/>
<path d="M3736 6855 c-54 -105 -173 -196 -306 -235 -50 -15 -80 -35 -40 -26
14 3 52 10 85 17 96 18 200 84 240 154 22 37 58 135 52 141 -1 2 -15 -22 -31
-51z"/>
<path d="M5616 6709 c-29 -23 -35 -63 -11 -73 21 -8 55 28 55 58 0 35 -13 39
-44 15z"/>
<path d="M5120 6670 c-20 -20 -37 -67 -27 -76 20 -21 77 39 77 81 0 21 -26 19
-50 -5z"/>
<path d="M5420 6665 c-27 -32 7 -73 53 -61 30 7 50 37 41 60 -8 21 -77 22 -94
1z"/>
<path d="M5887 6628 c-21 -7 -27 -16 -25 -31 4 -27 60 -45 140 -46 47 -1 59 3
68 18 15 29 14 30 -32 51 -52 23 -94 25 -102 5 -3 -8 -10 -15 -17 -15 -6 0 -9
7 -5 15 3 8 4 15 3 14 -1 0 -15 -5 -30 -11z m83 -28 c0 -5 -7 -10 -16 -10 -8
0 -12 5 -9 10 3 6 10 10 16 10 5 0 9 -4 9 -10z m85 0 c3 -5 -1 -10 -9 -10 -9
0 -16 5 -16 10 0 6 4 10 9 10 6 0 13 -4 16 -10z"/>
<path d="M5261 6581 c-41 -26 46 -68 114 -55 42 8 53 21 33 41 -19 18 -98 30
-98 14 0 -6 -7 -11 -16 -11 -8 0 -12 5 -9 10 8 12 -5 13 -24 1z m69 -21 c0 -5
-5 -10 -11 -10 -5 0 -7 5 -4 10 3 6 8 10 11 10 2 0 4 -4 4 -10z m70 0 c0 -5
-2 -10 -4 -10 -3 0 -8 5 -11 10 -3 6 -1 10 4 10 6 0 11 -4 11 -10z"/>
<path d="M5462 6557 c-23 -25 -28 -52 -12 -62 19 -12 48 5 60 35 21 51 -10 68
-48 27z"/>
<path d="M4884 6545 c-14 -35 51 -64 83 -39 17 13 17 15 -6 34 -28 24 -69 26
-77 5z"/>
<path d="M5560 6510 c0 -5 -6 -9 -12 -7 -25 4 -13 -26 13 -35 33 -11 79 6 79
28 0 10 -5 14 -15 10 -8 -3 -15 -1 -15 4 0 6 -11 10 -25 10 -14 0 -25 -4 -25
-10z"/>
<path d="M5711 6491 c-23 -43 -3 -87 36 -79 23 4 41 53 27 76 -16 25 -51 27
-63 3z"/>
<path d="M4774 6454 c-7 -29 6 -47 31 -42 44 8 45 68 1 68 -19 0 -27 -7 -32
-26z"/>
<path d="M6116 6458 c-9 -12 -12 -26 -8 -30 12 -12 42 1 42 18 0 8 0 17 1 21
2 18 -21 12 -35 -9z"/>
<path d="M3958 6437 c24 -42 24 -42 -46 -51 -60 -9 -152 -58 -190 -101 -18
-19 -32 -39 -32 -43 0 -9 65 -37 107 -46 52 -12 106 9 152 59 22 24 41 48 41
52 -1 5 -15 -9 -32 -30 -30 -37 -83 -67 -119 -67 -30 0 -109 41 -109 56 0 7 8
18 19 23 14 8 23 5 41 -14 29 -31 61 -32 96 -2 19 17 27 33 27 55 0 33 -3 32
105 44 21 3 18 7 -29 53 l-52 50 21 -38z m-88 -127 c0 -15 -38 -32 -45 -20 -3
5 -3 15 0 20 8 13 45 13 45 0z"/>
<path d="M5100 6440 c-7 -12 -9 -33 -6 -46 12 -47 60 -18 54 33 -4 35 -32 42
-48 13z"/>
<path d="M6393 6426 c11 -8 15 -20 11 -32 -5 -16 -4 -16 5 -4 10 13 12 13 21
0 5 -8 10 -21 10 -29 0 -31 -47 -81 -100 -108 -30 -15 -58 -32 -62 -38 -5 -6
-8 -6 -8 3 0 7 18 25 39 40 35 24 71 76 71 103 0 5 -19 -10 -42 -34 -24 -24
-50 -48 -59 -53 -13 -7 -17 -31 -21 -102 -6 -103 -8 -102 67 -64 112 56 155
109 155 190 0 48 -4 57 -41 97 -23 25 -47 45 -53 45 -6 0 -3 -7 7 -14z"/>
<path d="M4495 6380 c3 -5 8 -10 11 -10 2 0 4 5 4 10 0 6 -5 10 -11 10 -5 0
-7 -4 -4 -10z"/>
<path d="M5928 6372 c-19 -2 -25 -8 -21 -18 3 -8 0 -14 -6 -14 -6 0 -11 5 -11
12 0 9 -3 9 -11 1 -7 -7 -9 -19 -5 -29 5 -13 17 -16 66 -12 65 5 96 23 80 47
-7 12 -11 12 -24 2 -9 -8 -16 -9 -16 -3 0 13 -19 18 -52 14z"/>
<path d="M5219 6361 c10 -6 10 -10 1 -16 -7 -4 -16 -2 -20 5 -5 8 -9 6 -12 -8
-9 -32 7 -44 59 -49 38 -4 53 -1 73 15 20 17 23 24 14 39 -8 13 -26 19 -70 21
-37 1 -54 -1 -45 -7z m61 -31 c0 -5 -4 -10 -10 -10 -5 0 -10 5 -10 10 0 6 5
10 10 10 6 0 10 -4 10 -10z"/>
<path d="M5497 6353 c-9 -2 -14 -9 -10 -15 4 -7 0 -9 -10 -5 -8 3 -21 0 -27
-8 -9 -11 -7 -16 9 -24 27 -15 65 -14 106 3 42 18 50 52 10 42 -14 -4 -25 -2
-25 4 0 10 -21 11 -53 3z"/>
<path d="M3506 6096 c15 -12 17 -17 7 -27 -7 -7 -13 -22 -12 -33 0 -20 1 -20
9 2 10 25 20 28 38 10 9 -9 12 -9 12 0 0 17 -45 62 -61 62 -7 0 -4 -6 7 -14z"/>
<path d="M6180 6075 c0 -14 5 -25 10 -25 6 0 10 11 10 25 0 14 -4 25 -10 25
-5 0 -10 -11 -10 -25z"/>
<path d="M6112 6050 c-10 -16 -10 -20 2 -20 7 0 16 9 19 20 3 11 2 20 -2 20
-3 0 -12 -9 -19 -20z"/>
<path d="M5320 5700 c0 -20 -55 -44 -118 -50 l-67 -7 73 -2 c65 -1 76 2 97 24
23 22 33 45 20 45 -3 0 -5 -4 -5 -10z"/>
<path d="M3943 5410 c0 -30 2 -43 4 -27 2 15 2 39 0 55 -2 15 -4 2 -4 -28z"/>
<path d="M3916 5224 c-24 -64 30 -166 74 -139 17 11 11 23 -9 18 -21 -5 -45
24 -56 69 -5 19 -1 32 14 47 20 20 20 21 2 21 -10 0 -22 -7 -25 -16z"/>
<path d="M4090 4855 c-42 -51 29 -182 74 -135 8 9 6 11 -11 6 -47 -14 -80 100
-38 130 15 11 16 14 3 14 -8 0 -21 -7 -28 -15z"/>
<path d="M4306 4854 c-16 -43 6 -114 43 -133 13 -8 23 -6 37 5 11 9 13 12 6 9
-22 -12 -61 16 -72 51 -13 40 -6 71 18 77 13 4 12 5 -4 6 -12 0 -25 -6 -28
-15z"/>
<path d="M4925 3901 c-27 -10 -113 -48 -189 -85 -76 -36 -144 -66 -150 -66 -6
0 14 25 44 56 l55 57 -43 -24 c-108 -59 -250 -199 -293 -289 -30 -62 -40 -117
-23 -131 14 -12 40 0 199 88 165 91 373 177 416 171 58 -8 26 -105 -121 -368
-65 -116 -217 -369 -282 -469 -26 -40 -48 -83 -48 -95 0 -28 58 -85 89 -88 21
-3 41 19 133 137 251 324 321 408 468 556 143 144 213 199 255 199 45 0 16
-65 -110 -248 -134 -195 -255 -419 -294 -546 -11 -37 -21 -95 -21 -127 0 -50
4 -63 28 -91 24 -26 36 -31 74 -31 25 0 64 9 89 21 53 26 176 123 279 221 41
39 77 71 80 71 3 0 11 -19 18 -42 20 -62 49 -106 95 -139 74 -53 152 -33 257
67 44 42 64 54 89 54 40 0 87 20 127 53 18 15 34 27 37 27 2 0 7 -24 10 -54 6
-57 39 -134 62 -142 25 -10 54 16 134 120 77 99 261 286 282 286 6 0 2 -15 -9
-32 -122 -203 -146 -260 -140 -335 5 -63 23 -83 71 -83 48 0 91 27 207 131 67
61 112 95 114 87 3 -7 7 -31 11 -53 8 -47 41 -114 60 -121 25 -10 49 13 150
142 93 119 255 278 262 257 2 -5 -28 -65 -67 -134 -76 -134 -95 -185 -86 -233
22 -115 119 -100 269 43 83 78 119 111 122 111 2 0 10 -23 19 -51 17 -60 71
-143 103 -160 17 -9 29 -9 52 0 26 11 205 183 260 251 25 31 26 21 2 -55 -31
-99 -31 -185 0 -216 46 -46 139 2 295 153 66 64 93 97 96 118 3 17 3 30 1 30
-3 0 -34 -21 -69 -46 -85 -61 -136 -79 -172 -62 -23 11 -27 20 -30 64 -3 48 1
57 52 132 81 120 79 113 56 173 -21 57 -21 57 12 73 31 16 33 36 6 77 -29 41
-64 47 -142 25 -196 -57 -492 -280 -527 -396 -9 -29 -26 -48 -73 -83 -111 -81
-156 -93 -171 -46 -10 32 46 134 120 219 96 110 101 124 81 195 l-17 57 -35
-5 c-69 -11 -248 -160 -403 -334 -40 -46 -79 -83 -86 -83 -44 0 -11 79 74 175
93 106 117 144 105 163 -16 24 -62 33 -98 18 -55 -23 -180 -181 -222 -281 -9
-24 -37 -51 -87 -86 -83 -59 -112 -72 -140 -63 -51 16 12 153 132 284 61 66
68 86 50 153 -12 44 -18 52 -40 55 -48 6 -172 -89 -340 -260 -86 -87 -161
-158 -167 -158 -17 0 -15 36 4 73 19 36 83 120 144 187 54 60 52 88 -9 103
-34 8 -80 -14 -122 -59 -46 -51 -133 -179 -152 -226 -24 -58 -121 -112 -142
-78 -4 6 5 35 19 65 35 72 58 177 50 221 -4 21 -16 41 -30 50 -19 13 -22 21
-17 46 8 43 -15 58 -91 58 -102 0 -210 -62 -310 -180 -50 -58 -106 -158 -106
-188 0 -25 -114 -128 -196 -177 -116 -70 -180 -32 -149 90 27 101 74 180 285
480 140 197 164 240 180 311 12 55 -4 119 -44 168 l-23 30 -44 -17 c-24 -9
-75 -40 -114 -69 -139 -103 -511 -495 -704 -741 -30 -37 -56 -66 -58 -63 -2 2
13 33 35 68 41 66 208 349 282 477 103 179 152 313 136 375 -14 55 -129 73
-231 37z m3295 -716 c0 -12 -151 -204 -213 -271 -60 -65 -178 -154 -204 -154
-5 0 -18 9 -28 20 -13 15 -16 30 -12 65 10 92 89 163 307 275 133 68 150 75
150 65z m-2273 -106 c-40 -80 -42 -88 -43 -179 l-1 -95 -53 -32 c-57 -35 -93
-40 -134 -21 -36 16 -40 39 -21 123 13 58 24 82 56 118 34 39 228 182 236 174
1 -2 -17 -41 -40 -88z"/>
<path d="M1175 3866 c-243 -48 -479 -141 -559 -221 -41 -41 -66 -113 -66 -191
0 -94 23 -99 174 -35 50 21 104 41 120 45 57 14 19 14 -64 0 -47 -7 -89 -9
-93 -5 -14 14 73 58 199 99 112 38 282 77 291 68 3 -2 -27 -46 -64 -98 -161
-218 -307 -453 -399 -646 -43 -87 -48 -106 -52 -182 -5 -121 -1 -126 125 -123
293 6 619 147 826 356 158 160 238 346 224 525 -16 204 -110 325 -307 394 -73
26 -258 33 -355 14z m372 -250 c186 -59 250 -263 141 -446 -123 -205 -453
-392 -728 -413 -64 -5 -154 4 -166 16 -12 12 -6 54 14 98 51 108 172 318 284
492 101 156 122 199 114 238 -3 14 -2 30 2 34 13 13 285 -1 339 -19z"/>
<path d="M2923 3741 c-175 -127 -402 -519 -454 -786 -11 -59 -12 -61 -88 -116
-99 -74 -152 -99 -216 -106 -47 -5 -55 -3 -84 24 -26 22 -34 39 -38 76 l-6 47
69 31 c227 103 343 212 344 325 0 57 -25 78 -93 78 -102 -2 -202 -54 -316
-166 -122 -120 -170 -229 -156 -351 17 -151 90 -219 221 -204 80 9 161 58 257
156 49 49 90 84 92 78 2 -7 9 -39 14 -71 13 -71 53 -144 87 -157 75 -28 153
11 268 132 47 49 87 89 91 89 3 0 5 -16 5 -35 0 -52 37 -141 71 -170 63 -52
150 -23 265 90 39 39 79 82 89 98 19 30 35 35 35 12 0 -31 44 -128 72 -161 59
-67 116 -37 283 149 39 43 78 82 87 88 16 9 16 6 -1 -34 -54 -126 -53 -260 3
-269 64 -11 138 35 274 166 73 71 92 95 92 117 l0 28 -66 -49 c-83 -62 -135
-80 -173 -59 -22 12 -26 22 -29 66 -3 49 0 57 62 149 37 54 66 102 66 108 0 6
-10 31 -21 56 -21 47 -22 46 26 75 12 8 16 17 11 32 -12 36 -46 73 -70 73 -42
0 -142 -31 -221 -70 -157 -76 -363 -253 -387 -333 -13 -43 -135 -164 -195
-192 -81 -39 -154 44 -139 158 6 44 16 61 69 122 205 232 328 450 352 627 17
117 -22 138 -117 64 -165 -130 -363 -475 -428 -749 -20 -84 -10 -71 -144 -189
-48 -43 -80 -53 -117 -38 -48 20 -69 63 -69 142 l0 66 87 99 c137 156 265 363
308 499 11 35 19 90 19 134 1 73 0 75 -24 78 -16 2 -41 -8 -67 -27z m-3 -184
c0 -19 -19 -73 -46 -127 -61 -127 -214 -343 -231 -327 -9 9 39 151 79 236 94
197 198 311 198 218z m460 8 c0 -37 -43 -134 -103 -234 -66 -109 -171 -240
-175 -219 -8 42 104 305 165 388 67 91 113 117 113 65z m-1056 -361 c10 -25
-44 -112 -98 -160 -44 -38 -152 -104 -171 -104 -4 0 -4 12 0 28 18 75 112 184
194 227 55 29 67 30 75 9z m1607 -56 c-144 -196 -249 -306 -353 -371 -57 -35
-88 -13 -88 61 0 92 89 171 325 291 66 33 126 61 133 61 9 0 2 -16 -17 -42z"/>
<path d="M3525 3390 c-12 -39 -22 -120 -14 -120 4 0 11 16 14 35 3 19 7 51 10
70 6 38 0 47 -10 15z"/>
<path d="M4206 3162 c-16 -4 -31 -13 -34 -20 -3 -10 7 -11 45 -7 82 11 216
-28 271 -78 20 -18 24 -19 32 -7 19 30 9 47 -23 41 -5 -1 -6 3 -2 8 3 6 -18
22 -47 37 -42 22 -69 28 -133 30 -44 2 -93 0 -109 -4z"/>
<path d="M4368 2892 c-40 -3 -48 -6 -48 -23 0 -28 70 -27 88 2 7 12 12 22 10
22 -2 1 -24 1 -50 -1z"/>
<path d="M4327 2373 c-32 -4 -37 -7 -30 -21 4 -9 8 -135 8 -279 0 -189 4 -266
12 -274 19 -19 79 2 75 27 -2 10 -6 56 -9 100 -5 77 -4 82 16 89 36 11 88 -24
169 -114 42 -47 84 -91 92 -98 24 -19 57 -15 75 9 15 22 14 24 -12 42 -31 22
-193 182 -193 191 0 3 6 5 14 5 47 0 106 93 106 167 0 133 -97 179 -323 156z
m219 -84 c58 -58 32 -173 -48 -209 -24 -11 -60 -20 -80 -20 l-38 0 0 123 c0
68 3 127 8 131 4 4 35 6 70 4 50 -3 67 -9 88 -29z"/>
<path d="M5529 2300 c-14 -8 -15 -18 -8 -57 12 -63 5 -83 -31 -83 -15 0 -30
-6 -33 -14 -8 -19 1 -26 36 -26 l29 0 -7 -119 c-10 -167 7 -211 82 -211 33 0
53 16 53 42 0 13 -8 18 -29 18 -25 0 -31 6 -42 37 -13 40 -5 221 11 237 4 4
27 7 49 4 39 -3 51 4 51 33 0 5 -22 9 -50 9 l-49 0 -3 68 c-3 58 -6 67 -23 69
-11 2 -27 -2 -36 -7z"/>
<path d="M7874 2303 c-7 -5 -11 -35 -10 -73 l1 -65 -32 -3 c-25 -2 -33 -8 -33
-23 0 -14 7 -19 30 -19 l30 0 0 -140 c0 -136 1 -142 25 -165 28 -29 76 -33
100 -9 21 22 14 38 -18 42 -43 5 -48 21 -45 153 l3 124 50 1 c43 1 50 4 53 22
3 20 -1 22 -47 22 l-50 0 -3 68 c-3 58 -6 67 -23 70 -11 1 -25 -1 -31 -5z"/>
<path d="M5345 2205 c-5 -2 -22 -6 -37 -9 -43 -10 -96 -62 -104 -102 -8 -41 9
-69 78 -135 53 -50 58 -69 27 -100 -17 -17 -30 -20 -65 -16 -43 4 -44 4 -44
-24 0 -22 6 -30 26 -35 68 -17 164 55 164 123 0 31 -8 44 -54 88 -66 63 -80
88 -66 115 15 27 46 42 82 38 41 -4 63 26 34 48 -20 14 -23 15 -41 9z"/>
<path d="M4885 2186 c-39 -18 -80 -62 -99 -108 -32 -76 -11 -194 42 -241 70
-63 262 -60 262 3 0 28 -14 32 -54 15 -48 -20 -89 -19 -135 5 -39 20 -71 69
-71 110 0 21 2 22 65 15 81 -8 170 2 197 24 26 22 28 89 4 126 -39 60 -138 84
-211 51z m120 -42 c36 -17 56 -57 45 -89 -8 -24 -53 -32 -149 -27 l-63 4 6 31
c8 38 31 65 71 83 39 17 50 17 90 -2z"/>
<path d="M5823 2185 c-35 -15 -51 -49 -33 -70 11 -13 17 -11 42 10 34 28 110
34 141 11 19 -15 43 -74 33 -83 -3 -4 -37 -8 -75 -9 -78 -2 -132 -23 -161 -64
-40 -56 -13 -158 48 -181 37 -15 128 -6 150 14 23 21 42 22 42 3 0 -18 22 -26
50 -19 18 5 21 10 15 32 -4 14 -10 87 -14 161 -3 74 -12 145 -18 156 -28 49
-148 70 -220 39z m179 -237 c4 -63 -18 -93 -76 -103 -96 -18 -151 62 -87 126
27 26 36 29 94 29 l65 0 4 -52z"/>
<path d="M6192 2190 c-19 -8 -21 -13 -12 -29 5 -11 10 -76 10 -146 0 -185 23
-225 131 -225 43 0 65 6 93 25 45 30 46 30 46 5 0 -26 19 -34 54 -21 23 9 25
14 16 30 -6 12 -10 91 -10 189 0 185 -2 192 -56 172 -20 -8 -24 -14 -18 -28 4
-9 9 -69 12 -132 l4 -115 -35 -34 c-46 -43 -110 -53 -147 -23 -24 20 -25 24
-28 173 -4 171 -7 180 -60 159z"/>
<path d="M6652 2191 c-8 -5 -8 -19 -1 -51 6 -24 9 -112 7 -194 -3 -165 -2
-168 55 -147 24 10 26 13 16 38 -7 15 -12 72 -13 125 l-1 97 34 35 c38 39 61
45 86 20 15 -15 17 -15 30 2 20 26 14 56 -14 70 -31 16 -73 1 -105 -37 -14
-16 -27 -29 -30 -29 -2 0 -6 14 -8 31 -3 33 -33 54 -56 40z"/>
<path d="M7000 2183 c-39 -20 -54 -65 -26 -76 9 -4 16 -2 16 3 0 17 58 40 100
40 51 0 90 -34 90 -80 0 -30 -1 -31 -34 -25 -58 11 -146 -13 -183 -50 -29 -29
-33 -40 -33 -84 0 -41 5 -56 28 -82 38 -43 110 -51 175 -20 51 25 57 26 57 7
0 -20 28 -28 52 -15 13 7 17 16 12 27 -4 9 -10 81 -13 159 l-6 143 -32 32
c-29 29 -40 33 -100 36 -51 2 -77 -1 -103 -15z m180 -242 c0 -53 -3 -61 -27
-76 -71 -47 -163 -19 -163 49 0 60 37 85 128 86 l62 0 0 -59z"/>
<path d="M7367 2163 c4 -21 7 -111 5 -199 -3 -176 -1 -182 55 -168 19 5 23 11
20 28 -12 50 -17 156 -10 221 l8 69 47 20 c38 16 55 18 85 10 60 -15 73 -51
73 -211 0 -79 4 -134 10 -138 6 -4 24 -3 41 0 26 6 30 10 24 28 -4 12 -9 81
-12 152 -6 144 -16 175 -66 205 -48 30 -105 26 -198 -14 -11 -5 -18 -1 -22 13
-4 16 -13 21 -37 21 -31 0 -31 0 -23 -37z"/>
<path d="M8215 2189 c-128 -37 -170 -259 -67 -352 67 -60 249 -62 260 -3 6 30
-11 36 -58 19 -87 -31 -181 17 -196 100 l-7 39 75 -7 c150 -14 228 22 214 99
-17 92 -113 137 -221 105z m131 -54 c50 -32 37 -104 -19 -106 -45 -3 -161 2
-166 7 -8 8 11 55 34 83 36 42 99 49 151 16z"/>
</g>
</svg>
